<?xml version="1.0" standalone="no"?>
<!DOCTYPE svg PUBLIC "-//W3C//DTD SVG 20010904//EN"
 "http://www.w3.org/TR/2001/REC-SVG-20010904/DTD/svg10.dtd">
<svg version="1.0" xmlns="http://www.w3.org/2000/svg"
 width="1200.000000pt" height="265.000000pt" viewBox="0 0 1200.000000 265.000000"
 preserveAspectRatio="xMidYMid meet">

<g transform="translate(0.000000,265.000000) scale(0.100000,-0.100000)"
fill="#000000" stroke="none">
<path d="M0 1325 l0 -1325 6000 0 6000 0 0 1325 0 1325 -6000 0 -6000 0 0
-1325z m5898 575 c21 0 23 -3 17 -29 -8 -35 9 -71 33 -71 9 0 26 -7 36 -15 18
-14 18 -15 2 -15 -25 0 -73 27 -80 45 -3 9 -6 30 -6 46 l0 29 -105 0 c-80 0
-117 -5 -157 -20 -48 -18 -128 -80 -128 -99 0 -4 17 -21 38 -38 20 -17 73 -61
117 -97 43 -36 84 -66 91 -66 6 0 28 11 48 25 73 50 90 55 126 42 26 -9 34 -9
37 1 8 21 32 14 104 -30 l69 -43 0 -48 c0 -26 7 -61 15 -77 25 -49 76 -120 85
-120 5 0 18 17 28 38 11 20 40 73 65 117 26 44 47 85 47 91 0 21 -98 149 -143
186 -25 21 -66 47 -92 60 l-47 23 -26 -33 c-15 -18 -36 -32 -47 -32 -17 1 -16
3 7 16 15 8 32 23 38 34 34 63 196 -45 291 -195 25 -38 59 -93 77 -121 31 -49
81 -84 120 -84 10 0 28 -7 40 -16 49 -34 12 -158 -62 -203 -46 -29 -104 -94
-112 -127 -4 -14 -4 -60 0 -101 7 -92 -6 -128 -61 -166 -42 -29 -63 -63 -63
-101 0 -42 -23 -91 -61 -128 -53 -51 -69 -58 -142 -58 -82 0 -106 18 -137 102
-12 35 -28 77 -35 93 -7 17 -18 43 -24 59 -7 16 -14 59 -16 95 -3 46 -2 54 3
26 l7 -40 98 -3 97 -3 0 43 0 44 58 17 58 17 22 119 c12 66 22 130 22 144 0
14 -27 69 -60 124 -52 84 -60 105 -60 148 -1 48 -3 51 -43 76 -66 41 -88 51
-101 46 -9 -4 -16 -41 -20 -119 l-7 -113 -69 -70 c-62 -65 -67 -73 -63 -105 3
-25 13 -42 33 -55 58 -39 76 -117 44 -195 -13 -33 -14 -33 -9 -5 17 91 17 113
1 143 -9 18 -20 32 -25 32 -5 0 -20 11 -33 25 -18 17 -24 32 -21 50 4 18 -3
33 -26 56 -31 31 -33 31 -97 24 -36 -4 -79 -11 -97 -16 -83 -24 -129 -3 -186
81 -78 118 -76 150 24 316 72 120 120 174 174 200 35 17 202 36 246 28 11 -2
30 -4 43 -4z m2339 -32 c15 -7 51 -27 80 -45 41 -25 54 -40 64 -72 14 -46 -3
-41 199 -66 146 -18 293 -40 367 -56 38 -7 59 -18 78 -41 45 -54 14 -107 -102
-175 -40 -24 -66 -47 -74 -65 -15 -36 -37 -48 -88 -48 -44 0 -61 18 -61 64 0
22 -5 26 -29 26 -31 0 -49 -14 -31 -25 5 -3 10 -24 10 -45 0 -35 -7 -47 -55
-95 -39 -39 -55 -62 -55 -81 0 -36 -27 -64 -62 -64 -25 0 -28 -4 -28 -31 0
-39 -48 -89 -84 -89 -21 0 -26 -5 -26 -24 0 -39 -20 -83 -44 -96 -29 -15 -58
-7 -100 31 -52 45 -82 53 -106 27 -11 -12 -20 -27 -20 -33 0 -19 -47 -57 -66
-53 -12 2 -29 29 -49 75 -16 40 -40 82 -52 94 l-21 22 -32 -51 c-29 -48 -91
-92 -129 -92 -49 0 -115 76 -145 166 -9 29 -26 60 -36 69 -31 28 -24 50 25 86
66 50 67 65 7 119 -65 59 -77 87 -58 149 8 26 11 68 9 97 -5 45 -3 53 18 68
29 20 61 20 122 2 45 -14 52 -13 160 21 61 19 150 43 196 54 46 11 92 24 103
30 18 10 18 11 -2 39 -25 36 -25 60 1 94 23 29 68 35 116 14z m-6381 -25 c7
-10 14 -43 14 -74 0 -52 4 -61 49 -118 28 -34 55 -78 61 -97 6 -19 20 -39 31
-44 10 -6 19 -21 19 -34 0 -26 17 -36 59 -36 15 0 32 -5 39 -12 25 -25 12 -53
-43 -96 -30 -24 -55 -46 -55 -50 0 -4 14 -21 30 -39 33 -36 37 -64 15 -116
-24 -59 4 -104 80 -129 28 -9 41 -19 43 -35 3 -18 -4 -23 -46 -32 -115 -24
-178 -25 -231 -2 -59 25 -76 26 -116 5 -25 -13 -36 -14 -68 -3 -20 7 -39 10
-40 8 -2 -2 -13 -28 -25 -57 -16 -39 -19 -59 -12 -72 19 -35 11 -57 -24 -74
-19 -9 -43 -16 -54 -16 -29 0 -36 -16 -18 -42 21 -29 20 -67 -1 -90 -23 -25
-38 -23 -65 12 -13 17 -33 43 -45 59 -13 16 -23 43 -23 59 0 24 -11 42 -46 77
-41 40 -87 65 -99 53 -2 -2 9 -42 25 -88 16 -46 27 -86 25 -88 -8 -9 -94 73
-120 115 -24 36 -33 43 -49 37 -12 -3 -43 -9 -71 -11 -33 -4 -60 -13 -78 -29
-16 -13 -32 -24 -36 -24 -4 0 -35 -27 -70 -61 l-62 -61 -57 7 c-49 6 -63 13
-99 47 -46 45 -46 44 -1 133 54 106 72 114 159 69 46 -25 52 -26 66 -11 16 15
19 50 11 107 -3 21 3 27 37 38 22 7 49 21 60 31 11 11 52 35 90 54 58 29 84
35 153 39 100 6 129 23 154 93 20 56 41 81 74 89 29 8 31 22 5 35 -10 6 -26
28 -34 49 -22 54 -38 65 -65 46 -35 -24 -53 -67 -43 -101 16 -56 -32 -123 -78
-108 -11 3 -22 13 -25 21 -4 11 -14 13 -40 9 -29 -6 -36 -3 -46 15 -22 40 6
140 38 140 19 0 66 52 117 130 24 36 56 80 72 97 27 32 30 32 71 23 75 -18 91
-34 94 -98 2 -46 7 -57 21 -60 19 -4 67 33 67 50 0 5 20 52 45 104 25 51 45
97 45 101 0 3 11 21 26 40 28 37 68 44 90 16z m1619 7 c8 -13 71 -13 95 0 12
7 32 5 65 -7 35 -12 70 -14 136 -11 50 3 92 1 95 -4 9 -15 -13 -34 -55 -47
-54 -16 -58 -27 -25 -61 l28 -28 29 39 c28 38 68 52 82 29 3 -5 17 -10 30 -10
17 0 27 -9 39 -41 25 -61 1 -106 -34 -64 -14 17 -30 11 -30 -13 -1 -10 -20
-26 -48 -39 -55 -26 -156 -117 -166 -150 -7 -23 -36 -33 -36 -13 0 11 -59 14
-85 4 -22 -9 -45 -57 -35 -73 5 -10 19 -12 45 -7 36 7 37 6 31 -17 -4 -17 -1
-27 9 -31 8 -3 15 -15 15 -26 0 -22 35 -29 43 -7 2 8 23 11 62 10 52 -2 63 -6
88 -33 15 -16 34 -30 42 -30 7 0 22 -12 32 -26 10 -14 48 -40 83 -57 73 -36
84 -60 56 -116 -9 -16 -16 -44 -16 -61 0 -21 -9 -39 -27 -56 -16 -14 -36 -33
-45 -41 -10 -9 -18 -27 -18 -40 0 -13 -9 -32 -19 -42 -10 -10 -22 -28 -25 -39
-4 -11 -13 -23 -21 -26 -24 -9 -19 -92 6 -128 26 -35 21 -42 -24 -34 -67 13
-84 57 -113 301 -9 73 -14 84 -53 121 -69 63 -91 147 -52 195 19 23 19 24 -5
46 -42 38 -88 70 -114 78 -40 12 -78 44 -82 68 -2 14 -10 22 -23 22 -45 0 -63
151 -31 255 27 89 -5 122 -90 90 -36 -14 -64 -4 -64 23 0 31 9 41 65 75 38 23
63 31 102 31 28 1 55 -3 58 -9z m4515 -25 c21 -25 6 -39 -70 -66 -66 -23 -75
-29 -82 -56 -16 -62 -78 -49 -78 16 0 47 38 85 103 101 23 6 47 13 52 15 24 9
64 4 75 -10z m2630 -131 c54 -22 45 -29 -11 -9 -48 17 -41 20 -152 -68 -29
-23 -39 -26 -56 -18 -45 25 -65 14 -132 -70 -85 -108 -103 -124 -169 -151 -79
-32 -120 -58 -130 -82 -5 -13 -9 -15 -9 -6 0 8 3 20 7 26 10 15 109 68 154 83
25 8 54 33 92 79 128 156 115 145 167 139 42 -5 52 -2 90 26 56 43 92 67 101
67 4 0 26 -7 48 -16z m279 -31 c1 -7 -5 -10 -12 -7 -9 3 -18 -9 -26 -37 -7
-22 -14 -39 -17 -37 -2 3 6 33 18 68 17 51 23 60 29 45 4 -11 8 -25 8 -32z
m-232 -35 c-3 -7 -5 -2 -5 12 0 14 2 19 5 13 2 -7 2 -19 0 -25z m272 -48 c10
0 23 -6 28 -12 12 -15 37 -138 30 -145 -3 -2 -11 28 -18 67 -11 61 -16 71 -36
76 -26 7 -44 32 -42 61 0 10 5 3 10 -14 6 -22 16 -33 28 -33z m-159 -60 c22 0
33 7 44 28 8 15 15 21 16 14 0 -7 -11 -24 -25 -38 -20 -20 -32 -24 -55 -19
-26 6 -29 3 -33 -22 -3 -22 -4 -19 -6 12 -1 33 -6 43 -31 57 -17 9 -30 22 -30
27 0 6 21 -5 46 -24 28 -21 57 -35 74 -35z m-9755 -103 c25 -21 26 -26 17 -59
-10 -36 -7 -61 17 -137 13 -42 -2 -79 -39 -98 -30 -15 -146 -17 -155 -3 -7 12
8 64 41 137 19 40 22 61 18 96 -5 37 -3 48 15 66 27 27 53 27 86 -2z m9543
-212 c70 -4 132 -6 137 -5 6 1 31 2 58 1 l47 -1 0 -49 c0 -60 -7 -57 198 -67
l152 -7 1 34 c0 19 3 28 6 21 3 -7 2 -34 -3 -60 -4 -26 -9 -39 -11 -30 -6 24
-17 26 -195 33 l-157 7 -4 -88 c-2 -49 -3 -25 -1 54 l4 142 -173 0 c-121 0
-177 -4 -185 -12 -9 -9 -12 18 -10 122 l2 135 3 -111 4 -112 127 -7z m159 203
c-3 -8 -6 -5 -6 6 -1 11 2 17 5 13 3 -3 4 -12 1 -19z m332 -70 c18 -28 26 -46
18 -40 -8 7 -28 35 -46 64 -18 28 -26 46 -18 40 8 -7 28 -35 46 -64z m66 -95
c26 -52 30 -62 13 -38 -35 47 -50 75 -41 75 5 0 18 -17 28 -37z m-1149 -53 c8
-24 10 -40 5 -35 -13 15 -31 75 -30 99 1 20 2 20 6 1 2 -11 11 -40 19 -65z
m-1280 -15 c14 -36 -70 -156 -125 -176 -52 -20 -70 37 -22 72 16 12 43 43 61
70 24 37 38 49 56 49 14 0 27 -7 30 -15z m2461 -17 c-3 -8 -6 -5 -6 6 -1 11 2
17 5 13 3 -3 4 -12 1 -19z m-682 -132 c31 8 89 -21 111 -54 15 -24 12 -23 -19
7 -34 32 -39 33 -92 29 -38 -3 -52 -1 -45 6 5 5 11 42 12 81 l2 70 3 -73 c4
-70 4 -72 28 -66z m-431 -6 c3 -14 -2 -7 -13 15 -10 22 -21 51 -24 65 -4 14 2
7 12 -15 10 -22 22 -51 25 -65z m364 -25 c-5 -5 -139 -55 -147 -55 -19 0 25
23 74 39 61 20 82 25 73 16z m702 -54 c-40 -64 -49 -67 -14 -3 36 65 35 64 41
59 2 -3 -10 -28 -27 -56z m-1068 0 c-3 -21 2 -33 19 -45 26 -18 18 -22 -12 -6
-19 10 -27 59 -12 73 10 10 10 9 5 -22z m678 -44 c0 -12 0 -11 -24 28 l-17 30
20 -24 c12 -13 21 -28 21 -34z m-4106 27 c15 -40 4 -92 -37 -169 -24 -44 -50
-81 -59 -83 -26 -5 -68 28 -68 52 0 12 9 50 21 84 17 51 29 69 66 97 51 39 68
43 77 19z m3626 5 c-24 -16 -101 -49 -113 -48 -7 0 15 14 48 29 60 29 93 39
65 19z m417 1 c16 13 16 13 -1 -8 -24 -27 -32 -28 -46 -2 -10 19 -9 20 9 9 16
-10 23 -10 38 1z m-2108 -67 c20 -37 -27 -71 -57 -41 -16 16 -15 45 1 51 25
11 46 7 56 -10z m2521 12 c0 -3 -16 -23 -36 -45 -45 -49 -94 -64 -181 -55 -52
5 -68 12 -93 37 -17 16 -30 34 -30 40 0 5 16 -6 35 -26 34 -35 36 -36 115 -36
91 0 127 13 160 60 20 28 30 36 30 25z m-2620 -27 c14 -15 20 -35 20 -69 0
-39 -5 -52 -32 -78 -19 -18 -42 -31 -57 -31 -39 0 -81 39 -87 82 -6 32 -3 38
22 54 16 10 34 24 39 30 13 15 47 33 62 34 7 0 21 -10 33 -22z m-218 -116 c24
-27 65 -61 91 -76 55 -31 67 -51 44 -73 -24 -24 -88 -2 -144 50 -64 59 -86 93
-79 122 10 39 40 30 88 -23z m387 4 c40 -24 75 -91 60 -118 -15 -28 -47 -22
-68 13 -10 17 -35 42 -55 55 -39 27 -47 57 -19 72 19 11 32 7 82 -22z m2328
-72 c6 -16 -47 -90 -63 -87 -12 2 -27 70 -20 88 8 21 75 20 83 -1z m-2449 -62
c4 -26 -13 -52 -34 -52 -23 0 -40 46 -24 65 19 23 54 15 58 -13z"/>
<path d="M5461 1692 c-17 -27 -31 -54 -31 -60 0 -7 -4 -12 -8 -12 -5 0 -19
-22 -32 -49 -31 -67 -25 -120 24 -192 66 -96 72 -98 239 -77 90 11 101 11 133
-7 l35 -19 64 64 65 64 0 103 c0 101 -1 104 -25 115 -21 10 -32 8 -68 -12 -23
-13 -53 -32 -66 -42 -32 -24 -40 -23 -85 15 -22 17 -73 60 -115 95 -41 34 -81
62 -87 62 -7 0 -26 -22 -43 -48z"/>
<path d="M6372 1513 c-10 -16 -43 -72 -71 -125 -45 -83 -51 -100 -41 -118 9
-17 7 -44 -8 -123 -11 -56 -23 -123 -27 -149 -6 -45 -8 -48 -43 -53 -69 -11
-82 -21 -82 -60 0 -30 3 -35 23 -35 12 0 53 -26 91 -57 64 -51 71 -55 80 -38
6 10 22 30 36 43 97 92 96 90 80 176 -10 55 -9 67 9 116 16 42 32 63 67 90 83
62 113 99 120 148 6 40 4 48 -16 64 -12 10 -31 18 -41 18 -38 0 -90 34 -114
76 -33 57 -40 59 -63 27z"/>
<path d="M5900 827 c0 -10 51 -151 58 -161 5 -6 14 -30 21 -54 6 -23 22 -48
34 -56 29 -18 99 -29 134 -21 55 12 143 113 143 164 0 6 -32 37 -70 71 l-71
60 -124 0 c-69 0 -125 -1 -125 -3z"/>
<path d="M8131 1842 c-16 -30 -14 -51 9 -79 11 -14 20 -30 20 -34 0 -14 -67
-38 -163 -59 -49 -11 -95 -24 -101 -29 -19 -15 -139 -44 -181 -44 -22 0 -68 4
-101 8 -57 7 -63 6 -73 -14 -8 -13 -9 -32 -3 -53 6 -23 4 -46 -6 -76 -22 -66
-10 -99 57 -159 l58 -51 69 37 c38 21 89 41 114 45 25 3 90 18 145 31 55 13
132 31 170 39 39 8 106 24 150 36 91 24 162 21 257 -11 32 -10 80 -19 108 -19
48 0 50 -1 50 -28 0 -87 103 -96 133 -11 3 9 31 31 63 49 85 49 124 87 124
120 0 42 -36 65 -127 79 -43 7 -94 16 -113 22 -19 5 -116 18 -215 30 -99 11
-183 24 -187 27 -4 4 -13 24 -20 45 -26 78 -208 153 -237 99z"/>
<path d="M8340 1433 c-59 -11 -135 -34 -142 -41 -11 -11 24 -35 76 -52 59 -19
219 -9 280 18 56 25 53 41 -11 60 -46 13 -168 22 -203 15z"/>
<path d="M8085 1373 c-11 -2 -65 -15 -120 -28 -55 -13 -118 -26 -139 -30 -41
-7 -176 -74 -176 -88 0 -4 24 -19 53 -33 66 -30 187 -42 240 -25 55 18 164
132 182 189 7 23 2 25 -40 15z"/>
<path d="M8136 1328 c-56 -157 -60 -202 -18 -239 15 -14 66 -46 114 -72 76
-42 93 -47 125 -41 53 10 83 47 83 100 0 41 11 56 25 34 10 -17 44 -11 55 9 5
11 10 31 10 45 0 16 10 32 28 45 46 32 85 96 78 126 -8 31 -21 31 -83 3 -40
-18 -67 -22 -163 -22 -107 -1 -118 1 -164 27 -27 15 -54 27 -61 27 -8 0 -20
-19 -29 -42z"/>
<path d="M8035 1214 c-60 -54 -107 -74 -168 -74 -49 0 -164 31 -216 59 -18 10
-28 7 -66 -21 -49 -36 -55 -56 -25 -83 11 -10 20 -22 20 -26 0 -5 9 -33 21
-64 27 -73 78 -125 122 -125 40 0 95 43 122 95 14 26 49 56 116 101 53 35 101
69 106 76 13 16 26 98 16 98 -5 -1 -26 -17 -48 -36z"/>
<path d="M7974 1067 l-72 -51 24 -35 c13 -20 31 -58 40 -86 17 -52 31 -75 45
-75 4 0 27 27 49 60 22 33 43 60 45 60 14 0 65 -28 93 -52 18 -15 44 -31 58
-34 40 -10 70 29 65 83 0 6 -27 25 -58 43 -106 58 -173 105 -179 123 -9 27
-34 19 -110 -36z"/>
<path d="M1782 1828 c-6 -7 -33 -62 -62 -123 -28 -60 -56 -120 -62 -132 -6
-12 -22 -32 -34 -44 -20 -19 -27 -21 -49 -11 -21 10 -25 18 -25 57 0 66 -12
81 -72 95 l-52 13 -28 -34 c-15 -18 -28 -36 -28 -40 0 -3 35 -27 79 -52 43
-25 87 -56 97 -69 24 -29 124 -76 279 -129 203 -70 183 -69 246 -19 67 53 69
71 9 85 -58 13 -70 21 -70 49 0 15 -7 26 -20 29 -12 3 -20 14 -20 27 0 28 -15
55 -60 110 -52 63 -60 82 -54 122 4 19 1 45 -5 57 -13 23 -52 28 -69 9z"/>
<path d="M1323 1543 c-32 -51 -75 -98 -115 -125 -16 -11 -27 -30 -31 -53 -9
-54 0 -68 39 -62 24 4 37 0 50 -14 22 -25 39 -24 65 2 18 18 20 29 15 66 -6
47 2 72 37 111 30 33 53 27 83 -20 15 -24 28 -45 30 -47 9 -10 44 34 44 54 0
30 -66 79 -181 133 -4 2 -20 -19 -36 -45z"/>
<path d="M1537 1411 c-9 -15 -14 -31 -11 -34 14 -14 -7 -55 -31 -61 -28 -7
-65 -59 -65 -91 0 -12 -5 -26 -10 -31 -7 -7 -6 -20 4 -40 18 -36 11 -71 -16
-80 -11 -3 -18 -13 -16 -22 3 -15 17 -17 103 -13 63 2 102 7 104 15 8 21 96
95 131 110 19 8 65 22 102 31 38 10 88 31 114 48 55 36 50 44 -46 76 -36 12
-96 33 -135 46 -38 12 -96 35 -128 49 -72 33 -79 32 -100 -3z"/>
<path d="M1960 1235 c-51 -33 -134 -65 -167 -65 -31 0 -101 -41 -143 -85 l-45
-47 25 -16 c13 -10 32 -25 42 -34 45 -45 107 -59 142 -33 27 20 49 19 98 -6
37 -19 51 -20 149 -14 72 5 112 12 120 21 12 14 11 15 -70 45 -23 8 -38 23
-48 47 -13 31 -13 40 2 84 19 57 15 75 -23 111 l-28 27 -54 -35z"/>
<path d="M1365 1150 c-3 -5 -32 -10 -63 -10 -95 -1 -212 -36 -212 -65 0 -6 22
-33 49 -59 l49 -49 89 0 c114 0 164 24 113 55 -27 17 -25 38 7 63 21 17 25 27
19 48 -6 27 -38 38 -51 17z"/>
<path d="M1024 1040 c-21 -16 -49 -30 -61 -30 -28 0 -38 -17 -23 -35 11 -14
10 -32 -5 -95 -5 -21 0 -28 35 -48 29 -17 45 -20 58 -13 10 5 36 7 58 4 48 -6
67 11 85 79 l13 47 -55 59 c-29 33 -57 60 -60 61 -3 0 -23 -12 -45 -29z"/>
<path d="M1458 1013 c-10 -2 -31 -16 -46 -31 -16 -15 -38 -35 -51 -45 -21 -17
-23 -17 -40 4 -15 19 -23 21 -65 15 -45 -7 -49 -10 -68 -53 -20 -46 -20 -46
-1 -62 11 -9 30 -33 43 -54 20 -35 66 -75 74 -66 2 2 -5 30 -15 62 -10 31 -16
64 -13 71 6 16 64 27 64 12 0 -5 23 -31 50 -58 38 -36 50 -55 50 -77 0 -17 11
-42 25 -59 14 -17 25 -34 25 -39 0 -18 39 -46 55 -39 25 9 30 37 12 68 -30 53
-19 69 55 82 46 8 52 18 38 59 -10 27 -9 41 9 87 12 30 21 58 21 61 0 12 -36
45 -63 57 -27 11 -123 15 -159 5z"/>
<path d="M750 885 c0 -8 11 -17 25 -21 14 -3 25 -10 25 -14 0 -9 -24 -60 -55
-120 -31 -57 -21 -70 51 -70 52 0 57 2 111 55 31 30 65 58 75 61 32 10 16 25
-82 75 -96 50 -150 62 -150 34z"/>
<path d="M701 815 c-32 -54 -35 -78 -13 -98 18 -17 20 -17 34 5 23 35 58 106
58 118 0 5 -13 10 -29 10 -23 0 -34 -8 -50 -35z"/>
<path d="M3370 1838 c-48 -13 -110 -59 -110 -82 0 -16 5 -18 43 -11 23 5 57 9
74 9 37 1 105 59 88 75 -17 15 -59 19 -95 9z"/>
<path d="M3544 1833 c-32 -3 -49 -13 -79 -43 -37 -38 -38 -41 -41 -120 l-2
-80 213 0 c185 0 217 2 244 18 17 9 31 25 31 34 0 21 45 35 64 19 20 -17 25
-4 13 35 -8 27 -17 37 -39 41 -16 3 -31 10 -34 14 -12 19 -35 7 -60 -31 -15
-22 -33 -40 -40 -40 -14 0 -74 57 -74 71 0 12 52 45 84 53 22 5 26 10 17 19
-8 8 -14 8 -23 -1 -17 -17 -128 -15 -171 3 -20 8 -42 14 -49 13 -7 -1 -31 -3
-54 -5z"/>
<path d="M3395 1558 c-8 -36 8 -81 31 -83 10 -1 43 -10 72 -19 46 -15 60 -16
97 -6 24 7 56 9 72 6 25 -6 35 0 81 49 28 31 52 61 52 66 0 5 -84 9 -200 9
-199 0 -200 0 -205 -22z"/>
<path d="M3415 1450 c-8 -13 12 -40 30 -40 6 0 19 -18 28 -40 8 -22 22 -40 30
-40 8 0 20 -7 27 -15 7 -8 21 -15 32 -15 10 0 28 -9 40 -20 12 -11 25 -20 30
-20 15 0 8 38 -8 44 -8 3 -12 10 -9 16 3 6 -4 10 -17 10 -38 0 -51 15 -50 57
2 37 0 39 -41 50 -23 6 -52 14 -63 18 -13 4 -25 2 -29 -5z"/>
<path d="M3758 1245 c12 -15 22 -36 22 -46 0 -30 28 -22 46 12 19 38 11 49
-47 56 l-43 6 22 -28z"/>
<path d="M3704 1248 c-5 -7 -9 -22 -10 -33 -1 -11 -4 -27 -8 -36 -5 -12 1 -20
24 -29 40 -16 52 -5 48 45 -3 43 -39 77 -54 53z"/>
<path d="M3850 1200 c0 -15 27 -23 48 -15 16 7 15 8 -3 15 -28 12 -45 12 -45
0z"/>
<path d="M3799 1167 c-16 -6 -33 -25 -43 -48 -9 -20 -30 -50 -46 -66 l-30 -30
40 -37 c38 -35 46 -51 52 -106 2 -18 10 -26 27 -28 22 -3 23 -1 18 30 -4 26 0
39 20 59 l25 27 -36 27 c-31 23 -36 33 -36 68 0 27 8 50 25 73 36 47 34 51
-16 31z"/>
<path d="M3865 1160 c-29 -12 -65 -65 -65 -97 0 -31 49 -80 90 -89 14 -3 45
-12 69 -20 71 -23 81 -20 81 24 0 20 7 46 15 56 32 43 13 69 -70 97 -22 8 -44
20 -48 26 -9 15 -42 16 -72 3z"/>
<path d="M3657 1143 c-11 -11 -8 -58 6 -77 16 -21 40 -13 57 20 12 21 11 27
-1 38 -18 17 -53 28 -62 19z"/>
<path d="M3863 947 c-26 -15 -33 -28 -33 -64 0 -31 47 -143 60 -143 4 0 12 11
18 25 6 14 16 25 21 25 4 0 11 14 15 31 3 17 21 46 40 65 19 19 30 37 24 40
-25 15 -128 30 -145 21z"/>
<path d="M3786 821 c-6 -8 11 -129 20 -143 9 -14 52 -9 58 8 11 28 7 52 -16
99 -21 42 -48 59 -62 36z"/>
<path d="M3810 640 c0 -22 24 -60 42 -66 28 -8 32 0 18 40 -9 28 -17 36 -36
36 -13 0 -24 -4 -24 -10z"/>
<path d="M7870 1805 c-89 -33 -125 -82 -85 -115 19 -16 32 -5 37 30 2 20 13
27 63 43 77 24 90 31 90 48 0 22 -34 20 -105 -6z"/>
<path d="M950 1410 c-11 -7 -15 -27 -15 -72 -1 -47 -7 -77 -28 -120 -15 -31
-27 -66 -27 -77 0 -19 6 -21 59 -21 102 0 130 42 96 141 -10 28 -13 58 -9 86
4 28 2 48 -6 58 -14 17 -48 19 -70 5z"/>
<path d="M8622 1130 c-18 -28 -44 -57 -57 -66 -26 -17 -34 -54 -13 -54 39 0
146 125 134 157 -10 25 -32 13 -64 -37z"/>
<path d="M6553 899 c-40 -25 -67 -69 -82 -132 -14 -56 -4 -77 35 -77 19 0 31
14 64 82 40 79 50 137 25 145 -5 1 -24 -7 -42 -18z"/>
<path d="M8503 854 c-8 -21 19 -38 30 -18 9 16 1 34 -14 34 -5 0 -12 -7 -16
-16z"/>
<path d="M8370 825 c-13 -13 -31 -27 -42 -31 -25 -7 -24 -58 2 -84 27 -27 62
-25 99 6 35 29 41 75 15 112 -20 29 -45 28 -74 -3z"/>
<path d="M8155 750 c-7 -11 35 -69 77 -106 27 -25 109 -64 120 -58 20 12 4 35
-44 62 -29 16 -68 48 -86 71 -32 40 -55 51 -67 31z"/>
<path d="M8540 731 c0 -11 15 -28 35 -40 19 -11 39 -31 44 -44 12 -31 40 -42
48 -21 8 23 -26 84 -53 94 -12 5 -25 14 -29 19 -11 19 -45 13 -45 -8z"/>
<path d="M10870 643 c0 -10 5 -25 10 -33 7 -12 13 -11 34 10 35 32 33 40 -9
40 -27 0 -35 -4 -35 -17z"/>
<path d="M8450 590 c0 -23 25 -27 33 -6 7 16 -1 26 -20 26 -7 0 -13 -9 -13
-20z"/>
</g>
</svg>
