<!-- favicon.svg -->
<svg width="42" height="34" viewBox="0 0 42 34" fill="none" xmlns="http://www.w3.org/2000/svg">
  <path d="M3.8 7.4248H37.4C38.1426 7.4248 38.8548 7.7198 39.3799 8.24491C39.905 8.77001 40.2 9.4822 40.2 10.2248V29.8248C40.2 30.5674 39.905 31.2796 39.3799 31.8047C38.8548 32.3298 38.1426 32.6248 37.4 32.6248H3.8C3.05739 32.6248 2.3452 32.3298 1.8201 31.8047C1.295 31.2796 1 30.5674 1 29.8248V10.2248C1 9.4822 1.295 8.77001 1.8201 8.24491C2.3452 7.7198 3.05739 7.4248 3.8 7.4248Z" stroke="white" stroke-width="2"/>
  <path d="M12.0781 7.49275V3.16425H16.339L17.7593 1H23.4404L24.8607 3.16425H29.1216V7.49275" stroke="white" stroke-width="2"/>
  <path d="M5.19922 7.42539V6.02539H9.39922" stroke="white" stroke-width="2"/>
  <path d="M36.5579 3.58887H33.8525V7.10578H36.5579V3.58887Z" stroke="white" stroke-width="2"/>
  <path d="M9.82293 10.1982H4.78293C4.62829 10.1982 4.50293 10.3236 4.50293 10.4782V12.0182C4.50293 12.1729 4.62829 12.2982 4.78293 12.2982H9.82293C9.97757 12.2982 10.1029 12.1729 10.1029 12.0182V10.4782C10.1029 10.3236 9.97757 10.1982 9.82293 10.1982Z" stroke="white"/>
  <path d="M20.5998 28.4252C26.0122 28.4252 30.3998 24.0376 30.3998 18.6252C30.3998 13.2128 26.0122 8.8252 20.5998 8.8252C15.1874 8.8252 10.7998 13.2128 10.7998 18.6252C10.7998 24.0376 15.1874 28.4252 20.5998 28.4252Z" stroke="white" stroke-width="2"/>
  <path d="M20.5994 26.3248C24.852 26.3248 28.2994 22.8774 28.2994 18.6248C28.2994 14.3722 24.852 10.9248 20.5994 10.9248C16.3468 10.9248 12.8994 14.3722 12.8994 18.6248C12.8994 22.8774 16.3468 26.3248 20.5994 26.3248Z" stroke="white"/>
  <path d="M20.5998 24.9252C24.0792 24.9252 26.8998 22.1046 26.8998 18.6252C26.8998 15.1458 24.0792 12.3252 20.5998 12.3252C17.1204 12.3252 14.2998 15.1458 14.2998 18.6252C14.2998 22.1046 17.1204 24.9252 20.5998 24.9252Z" stroke="white" stroke-width="2"/>
  <path d="M37.3996 13.8651C37.8635 13.8651 38.2396 13.489 38.2396 13.0251C38.2396 12.5611 37.8635 12.1851 37.3996 12.1851C36.9357 12.1851 36.5596 12.5611 36.5596 13.0251C36.5596 13.489 36.9357 13.8651 37.3996 13.8651Z" fill="#C5EFCB"/>
  <path d="M37.3996 17.3651C37.8635 17.3651 38.2396 16.989 38.2396 16.5251C38.2396 16.0611 37.8635 15.6851 37.3996 15.6851C36.9357 15.6851 36.5596 16.0611 36.5596 16.5251C36.5596 16.989 36.9357 17.3651 37.3996 17.3651Z" fill="#C5EFCB"/>
  <path d="M22.7 4.625H18.5V7.425H22.7V4.625Z" stroke="white"/>
  <path d="M24.5996 18.4253C24.5996 20.7366 22.5921 22.6103 20.1156 22.6103C17.6392 22.6103 15.6316 20.7366 15.6316 18.4253C15.6316 16.114 17.6392 14.2402 20.1156 14.2402C22.5921 14.2402 24.5996 16.114 24.5996 18.4253Z" fill="#C5EFCB"/>
</svg>
